<svg width="640" height="640" xmlns="http://www.w3.org/2000/svg" style="background:#007f7f">
    <path fill="#fff" d="M320 72.5c-55.139 45-132.333 67.5-198.5 67.5v135c0 123.75 83.811 240.75 198.5 292.5 114.689-51.75 198.5-168.75 198.5-292.5v-135c-66.167 0-143.361-22.5-198.5-67.5z"/>
    <path fill="#007f7f" d="M253.938 256c-5.22 0-9.438 4.767-9.438 10.667s4.218 10.667 9.438 10.667h25.57c3.627 9.433 11.944 16 21.617 16s17.99-6.567 21.618-16h63.32c5.22 0 9.437-4.767 9.437-10.667s-4.217-10.667-9.437-10.667h-63.32c-3.628-9.433-11.945-16-21.618-16s-17.99 6.567-21.617 16h-25.57zm0 53.333c-5.22 0-9.438 4.767-9.438 10.667s4.218 10.667 9.438 10.667h72.757c3.628 9.433 11.945 16 21.618 16s17.99-6.567 21.618-16h16.132c5.22 0 9.437-4.767 9.437-10.667s-4.217-10.667-9.437-10.667h-16.132c-3.628-9.433-11.945-16-21.618-16s-17.99 6.567-21.618 16h-72.757zm0 53.334c-5.22 0-9.438 4.767-9.438 10.667s4.218 10.666 9.438 10.666h16.132c3.628 9.434 11.945 16 21.618 16s17.99-6.566 21.618-16h72.757c5.22 0 9.437-4.766 9.437-10.666s-4.217-10.667-9.437-10.667h-72.757c-3.628-9.433-11.945-16-21.618-16s-17.99 6.567-21.618 16h-16.132z"/>
</svg>
